<?xml version="1.0" standalone="no"?><!DOCTYPE svg PUBLIC "-//W3C//DTD SVG 1.1//EN" "http://www.w3.org/Graphics/SVG/1.1/DTD/svg11.dtd"><svg class="icon" width="200px" height="200.00px" viewBox="0 0 1024 1024" version="1.1" xmlns="http://www.w3.org/2000/svg"><path fill="#333333" d="M667.79 117.333c165.075 0 270.877 132.366 270.877 310.533 0 138.248-125.103 290.506-371.57 461.583-33.074 22.957-77.12 22.957-110.194 0-246.467-171.077-371.57-323.335-371.57-461.583 0-178.167 105.802-310.533 270.878-310.533 59.613 0 100.05 20.834 155.789 68.098 55.739-47.264 96.176-68.098 155.79-68.098z m0 63.147c-41.44 0-70.264 15.191-116.962 55.036-2.169 1.85-14.401 12.368-17.948 15.381-12.002 10.197-29.758 10.197-41.76 0-3.547-3.013-15.78-13.53-17.948-15.381-46.698-39.845-75.521-55.036-116.961-55.036-126.016 0-206.878 100.783-206.878 246.217 0 110.906 113.52 248.547 344.301 408.133 11.025 7.623 25.707 7.623 36.732 0 230.78-159.586 344.3-297.227 344.3-408.133 0-145.434-80.86-246.217-206.877-246.217z"  /></svg>