<?xml version="1.0" standalone="no"?><!DOCTYPE svg PUBLIC "-//W3C//DTD SVG 1.1//EN" "http://www.w3.org/Graphics/SVG/1.1/DTD/svg11.dtd"><svg class="icon" width="200px" height="200.00px" viewBox="0 0 1024 1024" version="1.1" xmlns="http://www.w3.org/2000/svg"><path fill="#333333" d="M878.079 731.275c-9.095 15.154-28.752 20.065-43.905 10.97-15.153-9.094-20.065-28.751-10.97-43.905 33.509-55.831 51.463-119.73 51.463-186.34 0-200.295-162.372-362.667-362.667-362.667-200.295 0-362.667 162.372-362.667 362.667 0 200.295 162.372 362.667 362.667 362.667 66.6 0 130.49-17.95 186.316-51.448 15.154-9.094 34.81-4.18 43.904 10.973 9.093 15.154 4.18 34.81-10.974 43.904-65.705 39.428-140.964 60.57-219.246 60.57-235.641 0-426.667-191.025-426.667-426.666S276.36 85.333 512 85.333c235.641 0 426.667 191.026 426.667 426.667 0 78.293-21.15 153.563-60.588 219.275zM374.581 489.45l84.337 83.992 190.438-190.718c12.487-12.506 32.749-12.521 45.255-0.034 12.506 12.488 12.52 32.75 0.033 45.255l-213.02 213.333c-12.475 12.495-32.714 12.523-45.224 0.063L329.419 534.796c-12.522-12.471-12.564-32.733-0.093-45.255 12.472-12.522 32.733-12.564 45.255-0.092z"  /></svg>