<?xml version="1.0" standalone="no"?><!DOCTYPE svg PUBLIC "-//W3C//DTD SVG 1.1//EN" "http://www.w3.org/Graphics/SVG/1.1/DTD/svg11.dtd"><svg t="1575806425239" class="icon" viewBox="0 0 1024 1024" version="1.1" xmlns="http://www.w3.org/2000/svg" p-id="4347" xmlns:xlink="http://www.w3.org/1999/xlink" width="200" height="200"><defs><style type="text/css"></style></defs><path d="M512 51.2c-253.44 0-460.8 207.36-460.8 460.8s207.36 460.8 460.8 460.8 460.8-207.36 460.8-460.8-207.36-460.8-460.8-460.8z m0 870.4c-225.28 0-409.6-184.32-409.6-409.6s184.32-409.6 409.6-409.6 409.6 184.32 409.6 409.6-184.32 409.6-409.6 409.6z" p-id="4348" fill="#cdcdcd"></path><path d="M396.8 627.2m-38.4 0a38.4 38.4 0 1 0 76.8 0 38.4 38.4 0 1 0-76.8 0Z" p-id="4349" fill="#cdcdcd"></path><path d="M384 435.2c-15.36 0-25.6 10.24-25.6 25.6s10.24 25.6 25.6 25.6c84.48 0 153.6 69.12 153.6 153.6 0 15.36 10.24 25.6 25.6 25.6s25.6-10.24 25.6-25.6c0-112.64-92.16-204.8-204.8-204.8z" p-id="4350" fill="#cdcdcd"></path><path d="M384 281.6c-15.36 0-25.6 10.24-25.6 25.6s10.24 25.6 25.6 25.6c168.96 0 307.2 138.24 307.2 307.2 0 15.36 10.24 25.6 25.6 25.6s25.6-10.24 25.6-25.6c0-197.12-161.28-358.4-358.4-358.4z" p-id="4351" fill="#cdcdcd"></path></svg>