<?xml version="1.0" standalone="no"?><!DOCTYPE svg PUBLIC "-//W3C//DTD SVG 1.1//EN" "http://www.w3.org/Graphics/SVG/1.1/DTD/svg11.dtd"><svg t="1571709404036" class="icon" viewBox="0 0 1024 1024" version="1.1" xmlns="http://www.w3.org/2000/svg" p-id="3792" xmlns:xlink="http://www.w3.org/1999/xlink" width="200" height="200"><defs><style type="text/css"></style></defs><path d="M872.746667 573.866667a18.858667 18.858667 0 0 0-22.058667 15.445333 322.901333 322.901333 0 0 1-318.464 266.368c-178.389333 0-323.498667-145.066667-323.498667-323.498667a323.413333 323.413333 0 0 1 591.701334-180.906666 319.829333 319.829333 0 0 1 50.261333 123.818666 19.072 19.072 0 0 0 37.461333-6.656A356.949333 356.949333 0 0 0 832 329.984 361.301333 361.301333 0 0 0 532.224 170.666667 361.429333 361.429333 0 0 0 170.666667 532.181333c0 199.381333 162.218667 361.557333 361.557333 361.557334a360.874667 360.874667 0 0 0 355.925333-297.770667 19.029333 19.029333 0 0 0-15.36-22.058667" p-id="3793"></path><path d="M532.224 411.306667a20.138667 20.138667 0 0 0-20.138667 20.181333v322.133333a20.138667 20.138667 0 0 0 40.277334 0v-322.133333a20.138667 20.138667 0 0 0-20.138667-20.181333M552.362667 310.613333a20.138667 20.138667 0 0 0-40.277334 0v40.277334a20.138667 20.138667 0 0 0 40.277334 0v-40.32z" p-id="3794"></path></svg>