<?xml version="1.0" standalone="no"?><!DOCTYPE svg PUBLIC "-//W3C//DTD SVG 1.1//EN" "http://www.w3.org/Graphics/SVG/1.1/DTD/svg11.dtd"><svg t="1571709336144" class="icon" viewBox="0 0 1066 1024" version="1.1" xmlns="http://www.w3.org/2000/svg" p-id="3667" xmlns:xlink="http://www.w3.org/1999/xlink" width="208.203125" height="200"><defs><style type="text/css"></style></defs><path d="M853.333333 469.76a21.333333 21.333333 0 0 0 21.333334-21.333333V263.168A92.586667 92.586667 0 0 0 782.122667 170.666667H284.501333A92.586667 92.586667 0 0 0 192 263.168v497.621333c0 51.029333 41.514667 92.586667 92.501333 92.586667h497.621334A92.629333 92.629333 0 0 0 874.666667 760.746667v-184.32a21.333333 21.333333 0 0 0-42.666667 0v184.32a49.92 49.92 0 0 1-49.877333 49.92H284.501333A49.92 49.92 0 0 1 234.666667 760.746667V263.168A49.92 49.92 0 0 1 284.501333 213.333333h497.621334A49.92 49.92 0 0 1 832 263.168V448.426667a21.333333 21.333333 0 0 0 21.333333 21.333333" p-id="3668"></path><path d="M554.24 372.010667l66.645333 66.645333a21.248 21.248 0 0 0 30.165334 0 21.418667 21.418667 0 0 0 0-30.208l-103.082667-103.082667a21.333333 21.333333 0 0 0-30.165333 0L414.677333 408.448a21.418667 21.418667 0 0 0 30.208 30.208l66.688-66.730667v206.293334a21.333333 21.333333 0 0 0 42.666667 0V372.010667zM532.906667 640.426667a21.333333 21.333333 0 0 0-21.333334 21.333333v42.666667a21.333333 21.333333 0 0 0 42.666667 0v-42.666667a21.333333 21.333333 0 0 0-21.333333-21.333333" p-id="3669"></path></svg>